<svg width="176" height="27" viewBox="0 0 176 27" fill="none" xmlns="http://www.w3.org/2000/svg">
<path d="M1.928 2.632V25H3.976V13.928H5.736C6.536 13.928 6.856 14.344 7.272 16.008L9.64 25H11.752L9.416 16.264C9.064 14.888 8.168 14.024 7.176 13.96V13.896C9.544 13.64 11.144 11.688 11.144 9V7.528C11.144 4.648 9.288 2.632 6.632 2.632H1.928ZM9.096 9.672C9.096 12.488 8.36 13.736 6.504 13.736H3.976V2.824H6.44C8.328 2.824 9.096 4.04 9.096 6.856V9.672ZM16.8408 19.88C16.8408 23.048 18.7928 25.256 21.6408 25.256C24.5528 25.256 26.5368 23.048 26.5368 19.88V7.624C26.5368 4.52 24.5848 2.376 21.7048 2.376C18.8568 2.376 16.8408 4.552 16.8408 7.624V19.88ZM18.8888 6.376C18.8888 4.008 19.9768 2.568 21.7048 2.568C23.4648 2.568 24.4888 3.944 24.4888 6.376V21.256C24.4888 23.688 23.4648 25.064 21.6728 25.064C19.9128 25.064 18.8888 23.688 18.8888 21.256V6.376ZM32.7283 19.88C32.7283 23.048 34.6803 25.256 37.5283 25.256C40.4403 25.256 42.4243 23.048 42.4243 19.88V7.624C42.4243 4.52 40.4723 2.376 37.5923 2.376C34.7443 2.376 32.7283 4.552 32.7283 7.624V19.88ZM34.7763 6.376C34.7763 4.008 35.8643 2.568 37.5923 2.568C39.3523 2.568 40.3763 3.944 40.3763 6.376V21.256C40.3763 23.688 39.3523 25.064 37.5603 25.064C35.8003 25.064 34.7763 23.688 34.7763 21.256V6.376ZM56.7118 2.632H47.2077V2.824H50.9517V25H52.9997V2.824H56.7118V2.632Z" fill="#111111"/>
<path d="M1.928 2.632V2.56725H1.86325V2.632H1.928ZM1.928 25H1.86325V25.0648H1.928V25ZM3.976 25V25.0648H4.04075V25H3.976ZM3.976 13.928V13.8632H3.91125V13.928H3.976ZM7.272 16.008L7.20918 16.0237L7.20939 16.0245L7.272 16.008ZM9.64 25L9.57738 25.0165L9.59009 25.0648H9.64V25ZM11.752 25V25.0648H11.8363L11.8146 24.9833L11.752 25ZM9.416 16.264L9.35327 16.28L9.35345 16.2807L9.416 16.264ZM7.176 13.96H7.11125V14.0207L7.17183 14.0246L7.176 13.96ZM7.176 13.896L7.16904 13.8316L7.11125 13.8379V13.896H7.176ZM3.976 13.736H3.91125V13.8007H3.976V13.736ZM3.976 2.824V2.75925H3.91125V2.824H3.976ZM1.86325 2.632V25H1.99275V2.632H1.86325ZM1.928 25.0648H3.976V24.9352H1.928V25.0648ZM4.04075 25V13.928H3.91125V25H4.04075ZM3.976 13.9928H5.736V13.8632H3.976V13.9928ZM5.736 13.9928C5.93069 13.9928 6.09103 14.0181 6.22911 14.0783C6.36638 14.1382 6.48581 14.2344 6.59604 14.3826C6.81935 14.6829 7.00097 15.1908 7.20918 16.0237L7.33482 15.9923C7.12703 15.1611 6.94065 14.6291 6.69996 14.3054C6.57819 14.1416 6.44162 14.0298 6.28089 13.9597C6.12097 13.8899 5.94131 13.8632 5.736 13.8632V13.9928ZM7.20939 16.0245L9.57738 25.0165L9.70262 24.9835L7.33462 15.9915L7.20939 16.0245ZM9.64 25.0648H11.752V24.9352H9.64V25.0648ZM11.8146 24.9833L9.47855 16.2473L9.35345 16.2807L11.6894 25.0167L11.8146 24.9833ZM9.47873 16.248C9.12255 14.8556 8.20987 13.9618 7.18017 13.8954L7.17183 14.0246C8.12613 14.0862 9.00545 14.9204 9.35327 16.28L9.47873 16.248ZM7.24075 13.96V13.896H7.11125V13.96H7.24075ZM7.18296 13.9604C9.58932 13.7002 11.2088 11.7152 11.2088 9H11.0793C11.0793 11.6608 9.49868 13.5798 7.16904 13.8316L7.18296 13.9604ZM11.2088 9V7.528H11.0793V9H11.2088ZM11.2088 7.528C11.2088 6.07406 10.7401 4.83368 9.93162 3.95613C9.12278 3.07818 7.97721 2.56725 6.632 2.56725V2.69675C7.94279 2.69675 9.05323 3.19381 9.83638 4.04387C10.6199 4.89432 11.0793 6.10194 11.0793 7.528H11.2088ZM6.632 2.56725H1.928V2.69675H6.632V2.56725ZM9.03125 9.672C9.03125 11.0773 8.84702 12.0778 8.44113 12.7256C8.03955 13.3666 7.41503 13.6712 6.504 13.6712V13.8007C7.44897 13.8007 8.12045 13.4814 8.55087 12.7944C8.97698 12.1142 9.16075 11.0827 9.16075 9.672H9.03125ZM6.504 13.6712H3.976V13.8007H6.504V13.6712ZM4.04075 13.736V2.824H3.91125V13.736H4.04075ZM3.976 2.88875H6.44V2.75925H3.976V2.88875ZM6.44 2.88875C7.36818 2.88875 8.00869 3.18625 8.42177 3.81938C8.83906 4.45897 9.03125 5.45094 9.03125 6.856H9.16075C9.16075 5.44506 8.96894 4.42103 8.53023 3.74862C8.08731 3.06975 7.39983 2.75925 6.44 2.75925V2.88875ZM9.03125 6.856V9.672H9.16075V6.856H9.03125ZM16.776 19.88C16.776 21.4772 17.2682 22.8373 18.1244 23.7991C18.9811 24.7614 20.199 25.3208 21.6408 25.3208V25.1912C20.2345 25.1912 19.0524 24.6466 18.2211 23.7129C17.3893 22.7787 16.9055 21.4508 16.9055 19.88H16.776ZM21.6408 25.3208C23.114 25.3208 24.3558 24.7617 25.2287 23.7995C26.1012 22.8378 26.6015 21.4775 26.6015 19.88H26.472C26.472 21.4505 25.9803 22.7782 25.1328 23.7125C24.2857 24.6463 23.0795 25.1912 21.6408 25.1912V25.3208ZM26.6015 19.88V7.624H26.472V19.88H26.6015ZM26.6015 7.624C26.6015 6.05845 26.1091 4.72999 25.2485 3.79222C24.3874 2.85398 23.1617 2.31125 21.7048 2.31125V2.44075C23.1278 2.44075 24.3181 2.97002 25.153 3.87978C25.9884 4.79001 26.472 6.08555 26.472 7.624H26.6015ZM21.7048 2.31125C20.2635 2.31125 19.03 2.86223 18.1573 3.80399C17.2848 4.7454 16.776 6.07376 16.776 7.624H16.9055C16.9055 6.10224 17.4047 4.8066 18.2522 3.89201C19.0995 2.97776 20.298 2.44075 21.7048 2.44075V2.31125ZM16.776 7.624V19.88H16.9055V7.624H16.776ZM18.9535 6.376C18.9535 5.20095 19.2236 4.26405 19.7007 3.62265C20.1763 2.98331 20.8609 2.63275 21.7048 2.63275V2.50325C20.8206 2.50325 20.0972 2.87269 19.5968 3.54535C19.0979 4.21595 18.824 5.18305 18.824 6.376H18.9535ZM21.7048 2.63275C22.5657 2.63275 23.2417 2.96818 23.7046 3.59833C24.1695 4.23121 24.424 5.16781 24.424 6.376H24.5535C24.5535 5.15219 24.296 4.18479 23.8089 3.52167C23.3198 2.85582 22.6038 2.50325 21.7048 2.50325V2.63275ZM24.424 6.376V21.256H24.5535V6.376H24.424ZM24.424 21.256C24.424 22.4642 24.1695 23.4007 23.7007 24.0335C23.234 24.6635 22.5501 24.9992 21.6728 24.9992V25.1287C22.5874 25.1287 23.3115 24.7765 23.8048 24.1105C24.2961 23.4473 24.5535 22.4798 24.5535 21.256H24.424ZM21.6728 24.9992C20.8118 24.9992 20.1358 24.6638 19.6729 24.0337C19.208 23.4008 18.9535 22.4642 18.9535 21.256H18.824C18.824 22.4798 19.0815 23.4472 19.5686 24.1103C20.0577 24.7762 20.7737 25.1287 21.6728 25.1287V24.9992ZM18.9535 21.256V6.376H18.824V21.256H18.9535ZM32.6635 19.88C32.6635 21.4772 33.1557 22.8373 34.0119 23.7991C34.8686 24.7614 36.0865 25.3208 37.5283 25.3208V25.1912C36.122 25.1912 34.9399 24.6466 34.1086 23.7129C33.2768 22.7787 32.793 21.4508 32.793 19.88H32.6635ZM37.5283 25.3208C39.0015 25.3208 40.2433 24.7617 41.1162 23.7995C41.9887 22.8378 42.489 21.4775 42.489 19.88H42.3595C42.3595 21.4505 41.8678 22.7782 41.0203 23.7125C40.1732 24.6463 38.967 25.1912 37.5283 25.1912V25.3208ZM42.489 19.88V7.624H42.3595V19.88H42.489ZM42.489 7.624C42.489 6.05845 41.9966 4.72999 41.136 3.79222C40.2749 2.85398 39.0492 2.31125 37.5923 2.31125V2.44075C39.0153 2.44075 40.2056 2.97002 41.0405 3.87978C41.8759 4.79001 42.3595 6.08555 42.3595 7.624H42.489ZM37.5923 2.31125C36.151 2.31125 34.9175 2.86223 34.0448 3.80399C33.1723 4.7454 32.6635 6.07376 32.6635 7.624H32.793C32.793 6.10224 33.2922 4.8066 34.1397 3.89201C34.987 2.97776 36.1855 2.44075 37.5923 2.44075V2.31125ZM32.6635 7.624V19.88H32.793V7.624H32.6635ZM34.841 6.376C34.841 5.20095 35.1111 4.26405 35.5882 3.62265C36.0638 2.98331 36.7484 2.63275 37.5923 2.63275V2.50325C36.7081 2.50325 35.9847 2.87269 35.4843 3.54535C34.9854 4.21595 34.7115 5.18305 34.7115 6.376H34.841ZM37.5923 2.63275C38.4532 2.63275 39.1292 2.96818 39.5921 3.59833C40.057 4.23121 40.3115 5.16781 40.3115 6.376H40.441C40.441 5.15219 40.1835 4.18479 39.6964 3.52167C39.2073 2.85582 38.4913 2.50325 37.5923 2.50325V2.63275ZM40.3115 6.376V21.256H40.441V6.376H40.3115ZM40.3115 21.256C40.3115 22.4642 40.0569 23.4007 39.5882 24.0335C39.1215 24.6635 38.4376 24.9992 37.5602 24.9992V25.1287C38.4749 25.1287 39.199 24.7765 39.6923 24.1105C40.1836 23.4473 40.441 22.4798 40.441 21.256H40.3115ZM37.5602 24.9992C36.6993 24.9992 36.0233 24.6638 35.5604 24.0337C35.0955 23.4008 34.841 22.4642 34.841 21.256H34.7115C34.7115 22.4798 34.969 23.4472 35.4561 24.1103C35.9452 24.7762 36.6612 25.1287 37.5602 25.1287V24.9992ZM34.841 21.256V6.376H34.7115V21.256H34.841ZM56.7118 2.632H56.7765V2.56725H56.7118V2.632ZM47.2077 2.632V2.56725H47.143V2.632H47.2077ZM47.2077 2.824H47.143V2.88875H47.2077V2.824ZM50.9517 2.824H51.0165V2.75925H50.9517V2.824ZM50.9517 25H50.887V25.0648H50.9517V25ZM52.9997 25V25.0648H53.0645V25H52.9997ZM52.9997 2.824V2.75925H52.935V2.824H52.9997ZM56.7118 2.824V2.88875H56.7765V2.824H56.7118ZM56.7118 2.56725H47.2077V2.69675H56.7118V2.56725ZM47.143 2.632V2.824H47.2725V2.632H47.143ZM47.2077 2.88875H50.9517V2.75925H47.2077V2.88875ZM50.887 2.824V25H51.0165V2.824H50.887ZM50.9517 25.0648H52.9997V24.9352H50.9517V25.0648ZM53.0645 25V2.824H52.935V25H53.0645ZM52.9997 2.88875H56.7118V2.75925H52.9997V2.88875ZM56.7765 2.824V2.632H56.647V2.824H56.7765Z" fill="black"/>
<path d="M66.0436 25H70.3636C73.0836 25 74.8756 22.984 74.8756 19.976V7.688C74.8756 4.552 73.1476 2.632 70.2996 2.632H66.0436V25ZM68.0916 2.824H69.9796C71.8676 2.824 72.8276 4.072 72.8276 6.504V21.16C72.8276 23.56 71.8996 24.808 70.1076 24.808H68.0916V2.824ZM81.0874 2.632V25H83.1354V2.632H81.0874ZM88.6241 25H88.8801L90.1281 18.024H94.6401L96.2081 25H98.2881L93.3281 2.632H92.6241L88.6241 25ZM92.1441 6.408H92.2081L92.4961 7.656L94.5761 17.832H90.1601L92.1441 6.408ZM115.262 2.632H113.086L109.822 21.128H109.758L105.438 2.632H103.294V25H103.486V3.624H103.55L108.638 25H109.374L113.15 3.624H113.214V25H115.262V2.632ZM121.65 19.88C121.65 23.048 123.602 25.256 126.45 25.256C129.362 25.256 131.346 23.048 131.346 19.88V7.624C131.346 4.52 129.394 2.376 126.514 2.376C123.666 2.376 121.65 4.552 121.65 7.624V19.88ZM123.698 6.376C123.698 4.008 124.786 2.568 126.514 2.568C128.274 2.568 129.298 3.944 129.298 6.376V21.256C129.298 23.688 128.274 25.064 126.482 25.064C124.722 25.064 123.698 23.688 123.698 21.256V6.376ZM139.557 2.632H137.413V25H137.605V3.272H137.669L145.509 25H146.213V2.632H146.021V20.872H145.925L139.557 2.632ZM152.65 25H156.97C159.69 25 161.482 22.984 161.482 19.976V7.688C161.482 4.552 159.754 2.632 156.906 2.632H152.65V25ZM154.698 2.824H156.586C158.474 2.824 159.434 4.072 159.434 6.504V21.16C159.434 23.56 158.506 24.808 156.714 24.808H154.698V2.824ZM172.867 21.928C172.867 23.752 171.651 24.968 169.923 24.968C168.963 24.968 167.875 24.616 166.659 23.944L166.563 24.072C167.811 24.84 169.123 25.256 170.403 25.256C172.963 25.256 174.819 23.56 174.819 21.192C174.819 20.328 174.595 19.432 174.115 18.472L169.987 9.96C169.283 8.488 168.899 7.08 168.899 5.928C168.899 4.04 169.923 2.696 171.331 2.696C172.259 2.696 173.347 3.272 174.211 4.168L174.339 4.04C173.315 2.984 172.035 2.376 170.755 2.376C168.547 2.376 166.915 4.232 166.915 6.76C166.915 7.848 167.235 9.032 167.843 10.28L171.875 18.504C172.547 19.816 172.867 20.968 172.867 21.928Z" fill="#111111"/>
<path d="M66.0436 25H65.9789V25.0648H66.0436V25ZM66.0436 2.632V2.56725H65.9789V2.632H66.0436ZM68.0916 2.824V2.75925H68.0269V2.824H68.0916ZM68.0916 24.808H68.0269V24.8728H68.0916V24.808ZM66.0436 25.0648H70.3636V24.9352H66.0436V25.0648ZM70.3636 25.0648C71.7406 25.0648 72.8866 24.554 73.6879 23.6592C74.4885 22.7651 74.9404 21.4927 74.9404 19.976H74.8109C74.8109 21.4673 74.3668 22.7069 73.5914 23.5728C72.8166 24.438 71.7067 24.9352 70.3636 24.9352V25.0648ZM74.9404 19.976V7.688H74.8109V19.976H74.9404ZM74.9404 7.688C74.9404 6.10851 74.5051 4.82748 73.7037 3.94059C72.9015 3.05288 71.7389 2.56725 70.2996 2.56725V2.69675C71.7084 2.69675 72.8338 3.17112 73.6076 4.02741C74.3821 4.88452 74.8109 6.13149 74.8109 7.688H74.9404ZM70.2996 2.56725H66.0436V2.69675H70.2996V2.56725ZM65.9789 2.632V25H66.1084V2.632H65.9789ZM68.0916 2.88875H69.9796V2.75925H68.0916V2.88875ZM69.9796 2.88875C70.9081 2.88875 71.5992 3.19475 72.0604 3.79159C72.5239 4.39148 72.7629 5.29482 72.7629 6.504H72.8924C72.8924 5.28117 72.6513 4.34452 72.1629 3.71241C71.6721 3.07725 70.9391 2.75925 69.9796 2.75925V2.88875ZM72.7629 6.504V21.16H72.8924V6.504H72.7629ZM72.7629 21.16C72.7629 22.3534 72.5319 23.2492 72.0877 23.8453C71.646 24.4381 70.9869 24.7432 70.1076 24.7432V24.8728C71.0203 24.8728 71.7212 24.5539 72.1915 23.9227C72.6594 23.2948 72.8924 22.3666 72.8924 21.16H72.7629ZM70.1076 24.7432H68.0916V24.8728H70.1076V24.7432ZM68.1564 24.808V2.824H68.0269V24.808H68.1564ZM81.0874 2.632V2.56725H81.0226V2.632H81.0874ZM81.0874 25H81.0226V25.0648H81.0874V25ZM83.1354 25V25.0648H83.2001V25H83.1354ZM83.1354 2.632H83.2001V2.56725H83.1354V2.632ZM81.0226 2.632V25H81.1521V2.632H81.0226ZM81.0874 25.0648H83.1354V24.9352H81.0874V25.0648ZM83.2001 25V2.632H83.0706V25H83.2001ZM83.1354 2.56725H81.0874V2.69675H83.1354V2.56725ZM88.6241 25L88.5604 24.9886L88.5468 25.0648H88.6241V25ZM88.8801 25V25.0648H88.9343L88.9439 25.0114L88.8801 25ZM90.1281 18.024V17.9592H90.0739L90.0644 18.0126L90.1281 18.024ZM94.6401 18.024L94.7033 18.0098L94.6919 17.9592H94.6401V18.024ZM96.2081 25L96.145 25.0142L96.1563 25.0648H96.2081V25ZM98.2881 25V25.0648H98.3688L98.3513 24.986L98.2881 25ZM93.3281 2.632L93.3913 2.61798L93.3801 2.56725H93.3281V2.632ZM92.6241 2.632V2.56725H92.5699L92.5604 2.6206L92.6241 2.632ZM92.1441 6.408V6.34325H92.0896L92.0803 6.39692L92.1441 6.408ZM92.2081 6.408L92.2712 6.39344L92.2596 6.34325H92.2081V6.408ZM92.4961 7.656L92.5596 7.64303L92.5592 7.64144L92.4961 7.656ZM94.5761 17.832V17.8968H94.6554L94.6396 17.819L94.5761 17.832ZM90.1601 17.832L90.0963 17.8209L90.0832 17.8968H90.1601V17.832ZM88.6241 25.0648H88.8801V24.9352H88.6241V25.0648ZM88.9439 25.0114L90.1919 18.0354L90.0644 18.0126L88.8164 24.9886L88.9439 25.0114ZM90.1281 18.0888H94.6401V17.9592H90.1281V18.0888ZM94.577 18.0382L96.145 25.0142L96.2713 24.9858L94.7033 18.0098L94.577 18.0382ZM96.2081 25.0648H98.2881V24.9352H96.2081V25.0648ZM98.3513 24.986L93.3913 2.61798L93.2649 2.64602L98.2249 25.014L98.3513 24.986ZM93.3281 2.56725H92.6241V2.69675H93.3281V2.56725ZM92.5604 2.6206L88.5604 24.9886L88.6879 25.0114L92.6879 2.6434L92.5604 2.6206ZM92.1441 6.47275H92.2081V6.34325H92.1441V6.47275ZM92.145 6.42256L92.433 7.67056L92.5592 7.64144L92.2712 6.39344L92.145 6.42256ZM92.4327 7.66897L94.5127 17.845L94.6396 17.819L92.5596 7.64303L92.4327 7.66897ZM94.5761 17.7672H90.1601V17.8968H94.5761V17.7672ZM90.2239 17.8431L92.2079 6.41908L92.0803 6.39692L90.0963 17.8209L90.2239 17.8431ZM115.262 2.632H115.327V2.56725H115.262V2.632ZM113.086 2.632V2.56725H113.032L113.022 2.62075L113.086 2.632ZM109.822 21.128V21.1928H109.876L109.886 21.1393L109.822 21.128ZM109.758 21.128L109.695 21.1427L109.707 21.1928H109.758V21.128ZM105.438 2.632L105.501 2.61727L105.489 2.56725H105.438V2.632ZM103.294 2.632V2.56725H103.229V2.632H103.294ZM103.294 25H103.229V25.0648H103.294V25ZM103.486 25V25.0648H103.551V25H103.486ZM103.486 3.624V3.55925H103.421V3.624H103.486ZM103.55 3.624L103.613 3.60901L103.601 3.55925H103.55V3.624ZM108.638 25L108.575 25.015L108.587 25.0648H108.638V25ZM109.374 25V25.0648H109.428L109.438 25.0113L109.374 25ZM113.15 3.624V3.55925H113.096L113.086 3.61274L113.15 3.624ZM113.214 3.624H113.279V3.55925H113.214V3.624ZM113.214 25H113.149V25.0648H113.214V25ZM115.262 25V25.0648H115.327V25H115.262ZM115.262 2.56725H113.086V2.69675H115.262V2.56725ZM113.022 2.62075L109.758 21.1167L109.886 21.1393L113.15 2.64325L113.022 2.62075ZM109.822 21.0632H109.758V21.1928H109.822V21.0632ZM109.821 21.1133L105.501 2.61727L105.375 2.64673L109.695 21.1427L109.821 21.1133ZM105.438 2.56725H103.294V2.69675H105.438V2.56725ZM103.229 2.632V25H103.359V2.632H103.229ZM103.294 25.0648H103.486V24.9352H103.294V25.0648ZM103.551 25V3.624H103.421V25H103.551ZM103.486 3.68875H103.55V3.55925H103.486V3.68875ZM103.487 3.63899L108.575 25.015L108.701 24.985L103.613 3.60901L103.487 3.63899ZM108.638 25.0648H109.374V24.9352H108.638V25.0648ZM109.438 25.0113L113.214 3.63526L113.086 3.61274L109.31 24.9887L109.438 25.0113ZM113.15 3.68875H113.214V3.55925H113.15V3.68875ZM113.149 3.624V25H113.279V3.624H113.149ZM113.214 25.0648H115.262V24.9352H113.214V25.0648ZM115.327 25V2.632H115.197V25H115.327ZM121.585 19.88C121.585 21.4772 122.078 22.8373 122.934 23.7991C123.791 24.7614 125.008 25.3208 126.45 25.3208V25.1912C125.044 25.1912 123.862 24.6466 123.03 23.7129C122.199 22.7787 121.715 21.4508 121.715 19.88H121.585ZM126.45 25.3208C127.923 25.3208 129.165 24.7617 130.038 23.7995C130.911 22.8378 131.411 21.4775 131.411 19.88H131.281C131.281 21.4505 130.79 22.7782 129.942 23.7125C129.095 24.6463 127.889 25.1912 126.45 25.1912V25.3208ZM131.411 19.88V7.624H131.281V19.88H131.411ZM131.411 7.624C131.411 6.05845 130.918 4.72999 130.058 3.79222C129.197 2.85398 127.971 2.31125 126.514 2.31125V2.44075C127.937 2.44075 129.127 2.97002 129.962 3.87978C130.798 4.79001 131.281 6.08555 131.281 7.624H131.411ZM126.514 2.31125C125.073 2.31125 123.839 2.86223 122.967 3.80399C122.094 4.7454 121.585 6.07376 121.585 7.624H121.715C121.715 6.10224 122.214 4.8066 123.062 3.89201C123.909 2.97776 125.107 2.44075 126.514 2.44075V2.31125ZM121.585 7.624V19.88H121.715V7.624H121.585ZM123.763 6.376C123.763 5.20095 124.033 4.26405 124.51 3.62265C124.986 2.98331 125.67 2.63275 126.514 2.63275V2.50325C125.63 2.50325 124.907 2.87269 124.406 3.54535C123.907 4.21595 123.633 5.18305 123.633 6.376H123.763ZM126.514 2.63275C127.375 2.63275 128.051 2.96818 128.514 3.59833C128.979 4.23121 129.233 5.16781 129.233 6.376H129.363C129.363 5.15219 129.105 4.18479 128.618 3.52167C128.129 2.85582 127.413 2.50325 126.514 2.50325V2.63275ZM129.233 6.376V21.256H129.363V6.376H129.233ZM129.233 21.256C129.233 22.4642 128.979 23.4007 128.51 24.0335C128.043 24.6635 127.359 24.9992 126.482 24.9992V25.1287C127.397 25.1287 128.121 24.7765 128.614 24.1105C129.105 23.4473 129.363 22.4798 129.363 21.256H129.233ZM126.482 24.9992C125.621 24.9992 124.945 24.6638 124.482 24.0337C124.017 23.4008 123.763 22.4642 123.763 21.256H123.633C123.633 22.4798 123.891 23.4472 124.378 24.1103C124.867 24.7762 125.583 25.1287 126.482 25.1287V24.9992ZM123.763 21.256V6.376H123.633V21.256H123.763ZM139.557 2.632L139.618 2.61066L139.603 2.56725H139.557V2.632ZM137.413 2.632V2.56725H137.348V2.632H137.413ZM137.413 25H137.348V25.0648H137.413V25ZM137.605 25V25.0648H137.669V25H137.605ZM137.605 3.272V3.20725H137.54V3.272H137.605ZM137.669 3.272L137.73 3.25002L137.714 3.20725H137.669V3.272ZM145.509 25L145.448 25.022L145.463 25.0648H145.509V25ZM146.213 25V25.0648H146.277V25H146.213ZM146.213 2.632H146.277V2.56725H146.213V2.632ZM146.021 2.632V2.56725H145.956V2.632H146.021ZM146.021 20.872V20.9368H146.085V20.872H146.021ZM145.925 20.872L145.863 20.8933L145.879 20.9368H145.925V20.872ZM139.557 2.56725H137.413V2.69675H139.557V2.56725ZM137.348 2.632V25H137.477V2.632H137.348ZM137.413 25.0648H137.605V24.9352H137.413V25.0648ZM137.669 25V3.272H137.54V25H137.669ZM137.605 3.33675H137.669V3.20725H137.605V3.33675ZM137.608 3.29398L145.448 25.022L145.57 24.978L137.73 3.25002L137.608 3.29398ZM145.509 25.0648H146.213V24.9352H145.509V25.0648ZM146.277 25V2.632H146.148V25H146.277ZM146.213 2.56725H146.021V2.69675H146.213V2.56725ZM145.956 2.632V20.872H146.085V2.632H145.956ZM146.021 20.8072H145.925V20.9368H146.021V20.8072ZM145.986 20.8507L139.618 2.61066L139.495 2.65334L145.863 20.8933L145.986 20.8507ZM152.65 25H152.585V25.0648H152.65V25ZM152.65 2.632V2.56725H152.585V2.632H152.65ZM154.698 2.824V2.75925H154.633V2.824H154.698ZM154.698 24.808H154.633V24.8728H154.698V24.808ZM152.65 25.0648H156.97V24.9352H152.65V25.0648ZM156.97 25.0648C158.347 25.0648 159.493 24.554 160.294 23.6592C161.095 22.7651 161.547 21.4927 161.547 19.976H161.417C161.417 21.4673 160.973 22.7069 160.198 23.5728C159.423 24.438 158.313 24.9352 156.97 24.9352V25.0648ZM161.547 19.976V7.688H161.417V19.976H161.547ZM161.547 7.688C161.547 6.10851 161.111 4.82748 160.31 3.94059C159.508 3.05288 158.345 2.56725 156.906 2.56725V2.69675C158.315 2.69675 159.44 3.17112 160.214 4.02741C160.988 4.88452 161.417 6.13149 161.417 7.688H161.547ZM156.906 2.56725H152.65V2.69675H156.906V2.56725ZM152.585 2.632V25H152.715V2.632H152.585ZM154.698 2.88875H156.586V2.75925H154.698V2.88875ZM156.586 2.88875C157.514 2.88875 158.205 3.19475 158.667 3.79159C159.13 4.39148 159.369 5.29482 159.369 6.504H159.499C159.499 5.28117 159.258 4.34452 158.769 3.71241C158.278 3.07725 157.545 2.75925 156.586 2.75925V2.88875ZM159.369 6.504V21.16H159.499V6.504H159.369ZM159.369 21.16C159.369 22.3534 159.138 23.2492 158.694 23.8453C158.252 24.4381 157.593 24.7432 156.714 24.7432V24.8728C157.627 24.8728 158.327 24.5539 158.798 23.9227C159.266 23.2948 159.499 22.3666 159.499 21.16H159.369ZM156.714 24.7432H154.698V24.8728H156.714V24.7432ZM154.763 24.808V2.824H154.633V24.808H154.763ZM166.659 23.944L166.691 23.8873L166.641 23.8601L166.608 23.9051L166.659 23.944ZM166.563 24.072L166.512 24.0331L166.469 24.0899L166.529 24.1271L166.563 24.072ZM174.115 18.472L174.057 18.5003L174.057 18.501L174.115 18.472ZM169.987 9.96L169.929 9.98794L169.929 9.98825L169.987 9.96ZM174.211 4.168L174.165 4.21294L174.211 4.26041L174.257 4.21379L174.211 4.168ZM174.339 4.04L174.385 4.08578L174.43 4.0407L174.386 3.99492L174.339 4.04ZM167.843 10.28L167.785 10.3084L167.785 10.3085L167.843 10.28ZM171.875 18.504L171.817 18.5325L171.818 18.5335L171.875 18.504ZM172.803 21.928C172.803 22.8253 172.504 23.5683 171.997 24.0867C171.49 24.6051 170.772 24.9032 169.923 24.9032V25.0328C170.803 25.0328 171.556 24.7229 172.09 24.1773C172.623 23.6317 172.932 22.8547 172.932 21.928H172.803ZM169.923 24.9032C168.979 24.9032 167.902 24.5566 166.691 23.8873L166.628 24.0007C167.849 24.6754 168.948 25.0328 169.923 25.0328V24.9032ZM166.608 23.9051L166.512 24.0331L166.615 24.1109L166.711 23.9829L166.608 23.9051ZM166.529 24.1271C167.786 24.9002 169.109 25.3208 170.403 25.3208V25.1912C169.138 25.1912 167.837 24.7798 166.597 24.0169L166.529 24.1271ZM170.403 25.3208C172.994 25.3208 174.884 23.6008 174.884 21.192H174.755C174.755 23.5192 172.933 25.1912 170.403 25.1912V25.3208ZM174.884 21.192C174.884 20.3163 174.657 19.4104 174.173 18.443L174.057 18.501C174.534 19.4536 174.755 20.3397 174.755 21.192H174.884ZM174.174 18.4437L170.046 9.93174L169.929 9.98825L174.057 18.5003L174.174 18.4437ZM170.046 9.93206C169.344 8.4652 168.964 7.06702 168.964 5.928H168.835C168.835 7.09298 169.223 8.5108 169.929 9.98794L170.046 9.93206ZM168.964 5.928C168.964 4.05773 169.975 2.76075 171.331 2.76075V2.63125C169.872 2.63125 168.835 4.02227 168.835 5.928H168.964ZM171.331 2.76075C172.235 2.76075 173.308 3.32412 174.165 4.21294L174.258 4.12305C173.387 3.21988 172.283 2.63125 171.331 2.63125V2.76075ZM174.257 4.21379L174.385 4.08578L174.294 3.99421L174.166 4.12221L174.257 4.21379ZM174.386 3.99492C173.352 2.92892 172.056 2.31125 170.755 2.31125V2.44075C172.015 2.44075 173.279 3.03908 174.293 4.08507L174.386 3.99492ZM170.755 2.31125C168.504 2.31125 166.851 4.20449 166.851 6.76H166.98C166.98 4.25951 168.591 2.44075 170.755 2.44075V2.31125ZM166.851 6.76C166.851 7.86051 167.174 9.05431 167.785 10.3084L167.902 10.2516C167.297 9.00969 166.98 7.83548 166.98 6.76H166.851ZM167.785 10.3085L171.817 18.5325L171.934 18.4755L167.902 10.2515L167.785 10.3085ZM171.818 18.5335C172.487 19.84 172.803 20.9817 172.803 21.928H172.932C172.932 20.9543 172.608 19.792 171.933 18.4745L171.818 18.5335Z" fill="black"/>
</svg>
