<svg width="40" height="40" viewBox="0 0 40 40" fill="none" xmlns="http://www.w3.org/2000/svg">
<path d="M0.817383 20.0001C0.817383 25.0231 2.81278 29.8404 6.3646 33.3922C9.91643 36.9441 14.7337 38.9395 19.7568 38.9395C24.7798 38.9395 29.5971 36.9441 33.149 33.3922C36.7008 29.8404 38.6962 25.0231 38.6962 20.0001C38.6962 14.977 36.7008 10.1597 33.149 6.60789C29.5971 3.05606 24.7798 1.06067 19.7568 1.06067C14.7337 1.06067 9.91643 3.05606 6.3646 6.60789C2.81278 10.1597 0.817383 14.977 0.817383 20.0001V20.0001Z" stroke="white" stroke-width="1.51515" stroke-linecap="round" stroke-linejoin="round"/>
<path d="M24.8078 13.6869L23.5451 11.1616H15.9694L14.7068 13.6869H12.1815C11.5118 13.6869 10.8695 13.9529 10.3959 14.4265C9.9223 14.9001 9.65625 15.5424 9.65625 16.2121V23.7879C9.65625 24.4576 9.9223 25.0999 10.3959 25.5735C10.8695 26.0471 11.5118 26.3131 12.1815 26.3131H27.333C28.0028 26.3131 28.6451 26.0471 29.1186 25.5735C29.5922 25.0999 29.8583 24.4576 29.8583 23.7879V16.2121C29.8583 15.5424 29.5922 14.9001 29.1186 14.4265C28.6451 13.9529 28.0028 13.6869 27.333 13.6869H24.8078Z" stroke="white" stroke-width="1.51515" stroke-linecap="round" stroke-linejoin="round"/>
<path d="M16.6006 19.3687C16.6006 19.7833 16.6822 20.1937 16.8409 20.5767C16.9995 20.9597 17.232 21.3076 17.5251 21.6008C17.8182 21.8939 18.1662 22.1264 18.5492 22.285C18.9322 22.4436 19.3426 22.5253 19.7572 22.5253C20.1717 22.5253 20.5821 22.4436 20.9651 22.285C21.3481 22.1264 21.6961 21.8939 21.9892 21.6008C22.2823 21.3076 22.5148 20.9597 22.6734 20.5767C22.8321 20.1937 22.9137 19.7833 22.9137 19.3687C22.9137 18.9542 22.8321 18.5437 22.6734 18.1608C22.5148 17.7778 22.2823 17.4298 21.9892 17.1367C21.6961 16.8436 21.3481 16.6111 20.9651 16.4524C20.5821 16.2938 20.1717 16.2122 19.7572 16.2122C19.3426 16.2122 18.9322 16.2938 18.5492 16.4524C18.1662 16.6111 17.8182 16.8436 17.5251 17.1367C17.232 17.4298 16.9995 17.7778 16.8409 18.1608C16.6822 18.5437 16.6006 18.9542 16.6006 19.3687V19.3687Z" stroke="white" stroke-width="1.51515" stroke-linecap="round" stroke-linejoin="round"/>
</svg>
