<svg width="16" height="20" viewBox="0 0 16 20" fill="none" xmlns="http://www.w3.org/2000/svg">
<path d="M16.0007 17.2736L14.8538 4.34832C14.8332 4.09253 14.6187 3.89863 14.3588 3.89863H11.9412C11.9371 1.74923 10.1879 0 8.03846 0C5.88905 0 4.13983 1.74923 4.1357 3.89863H1.71814C1.46235 3.89863 1.24782 4.09253 1.22307 4.34832L0.0761719 17.2736C0.0761719 17.2901 0.0761719 17.3025 0.0761719 17.319C0.0761719 18.7588 1.40047 19.9305 3.02593 19.9305H13.051C14.6764 19.9305 16.0007 18.7588 16.0007 17.319C16.0007 17.3025 16.0007 17.2901 16.0007 17.2736ZM8.03846 0.990129C9.64329 0.990129 10.947 2.2938 10.9511 3.89863H5.12583C5.12995 2.2938 6.43362 0.990129 8.03846 0.990129ZM13.051 18.9362H3.02593C1.95329 18.9362 1.07868 18.2225 1.0663 17.3355L2.17194 4.88876H4.1357V6.62561C4.1357 6.8979 4.35848 7.12068 4.63076 7.12068C4.90305 7.12068 5.12583 6.8979 5.12583 6.62561V4.88876H10.9511V6.62561C10.9511 6.8979 11.1739 7.12068 11.4462 7.12068C11.7184 7.12068 11.9412 6.8979 11.9412 6.62561V4.88876H13.905L15.0106 17.3396C14.9982 18.2225 14.1236 18.9362 13.051 18.9362Z" fill="#D7D2CE"/>
</svg>
