<svg width="17" height="20" viewBox="0 0 17 20" fill="none" xmlns="http://www.w3.org/2000/svg">
<path d="M16.0027 17.2736L14.8558 4.34832C14.8352 4.09253 14.6206 3.89863 14.3607 3.89863H11.9432C11.939 1.74923 10.1898 0 8.04041 0C5.89101 0 4.14178 1.74923 4.13765 3.89863H1.72009C1.46431 3.89863 1.24978 4.09253 1.22502 4.34832L0.078125 17.2736C0.078125 17.2901 0.078125 17.3025 0.078125 17.319C0.078125 18.7588 1.40242 19.9305 3.02788 19.9305H13.0529C14.6784 19.9305 16.0027 18.7588 16.0027 17.319C16.0027 17.3025 16.0027 17.2901 16.0027 17.2736ZM8.04041 0.990129C9.64524 0.990129 10.9489 2.2938 10.953 3.89863H5.12778C5.13191 2.2938 6.43558 0.990129 8.04041 0.990129ZM13.0529 18.9362H3.02788C1.95524 18.9362 1.08063 18.2225 1.06825 17.3355L2.1739 4.88876H4.13765V6.62561C4.13765 6.8979 4.36043 7.12068 4.63272 7.12068C4.905 7.12068 5.12778 6.8979 5.12778 6.62561V4.88876H10.953V6.62561C10.953 6.8979 11.1758 7.12068 11.4481 7.12068C11.7204 7.12068 11.9432 6.8979 11.9432 6.62561V4.88876H13.9069L15.0126 17.3396C15.0002 18.2225 14.1256 18.9362 13.0529 18.9362Z" fill="#333333"/>
</svg>
