<svg width="11" height="21" viewBox="0 0 11 21" fill="none" xmlns="http://www.w3.org/2000/svg">
<path d="M6.6555 7.58688V7.98688H7.0555H10.0432L9.61274 10.7866H7.06473H6.66473V11.1866V19.5426C5.63788 19.6738 4.5985 19.6738 3.57165 19.5426V11.1866V10.7866H3.17165H0.4V7.98872H3.17165H3.57165V7.58872V4.84512C3.57165 3.36316 4.00802 2.26312 4.73395 1.53412C5.45958 0.805416 6.5212 0.400557 7.86456 0.400001C8.66473 0.411317 9.46325 0.473858 10.2552 0.587197V2.90819H9.08507C8.22434 2.90819 7.59443 3.17848 7.18721 3.64943C6.78937 4.10953 6.6555 4.70229 6.6555 5.25288V7.58688Z" stroke="#1E1B1B" stroke-width="0.8"/>
</svg>
