<svg width="20" height="17" viewBox="0 0 20 17" fill="none" xmlns="http://www.w3.org/2000/svg">
<path d="M6.29791 15.7536H6.29763C4.5638 15.7553 2.85931 15.3527 1.31707 14.585C3.11532 14.5325 4.85214 13.9051 6.27074 12.7912L6.92854 12.2747L6.09243 12.2553C5.30972 12.2372 4.5521 11.9756 3.92486 11.5071C3.42852 11.1363 3.03332 10.6505 2.77135 10.0945C3.25551 10.1276 3.74306 10.0798 4.21376 9.95205L4.19454 9.36847C3.34571 9.19701 2.58231 8.73722 2.03384 8.06707C1.57842 7.51062 1.29446 6.83759 1.21109 6.12946C1.68675 6.32417 2.19482 6.43262 2.71138 6.44818L3.75787 6.47971L2.88689 5.89875C2.09226 5.3687 1.5297 4.55555 1.3139 3.62506C1.13103 2.83659 1.20881 2.01418 1.52899 1.27911C2.51885 2.40465 3.71515 3.33233 5.05466 4.01115C6.53044 4.75903 8.14703 5.1881 9.79944 5.27052L10.1966 5.29033L10.1066 4.90297C10.0416 4.62332 10.0093 4.33708 10.0104 4.04999L10.0104 4.04907C10.011 3.29721 10.2375 2.56286 10.6605 1.94126C11.0835 1.31966 11.6834 0.839467 12.3826 0.562956C13.0818 0.286444 13.8479 0.226364 14.5816 0.390507C15.3154 0.554651 15.9828 0.935446 16.4976 1.48352L16.6108 1.6041L16.7732 1.57268C17.43 1.44562 18.0684 1.24152 18.6754 0.965306C18.3579 1.50463 17.9087 1.96032 17.3644 2.28634L17.5535 2.84166C18.0362 2.78496 18.5124 2.68624 18.9766 2.54697C18.5817 2.99969 18.136 3.40703 17.6477 3.76065L17.5236 3.85047V4.00363V4.00465V4.00567V4.00669V4.00771V4.00873V4.00975V4.01077V4.01179V4.01281V4.01383V4.01485V4.01587V4.01689V4.01791V4.01893V4.01995V4.02097V4.02199V4.02301V4.02403V4.02505V4.02607V4.02709V4.02811V4.02912V4.03014V4.03116V4.03218V4.0332V4.03422V4.03524V4.03626V4.03728V4.0383V4.03932V4.04034V4.04136V4.04238V4.0434V4.04442V4.04544V4.04646V4.04748V4.0485V4.04952V4.05054V4.05156V4.05258V4.0536V4.05462V4.05564V4.05666V4.05768V4.0587V4.05972V4.06074V4.06176V4.06278V4.0638V4.06482V4.06583V4.06685V4.06787V4.06889V4.06991V4.07093V4.07195V4.07297V4.07399V4.07501V4.07603V4.07705V4.07807V4.07909V4.08011V4.08113V4.08215V4.08317V4.08419V4.08521V4.08623V4.08725V4.08827V4.08929V4.09031V4.09133V4.09235V4.09337V4.09439V4.09541V4.09643V4.09745V4.09847V4.09949V4.10051V4.10153V4.10255V4.10357V4.10459V4.10561V4.10663V4.10765V4.10867V4.10969V4.11071V4.11173V4.11275V4.11377V4.11479V4.11581V4.11684V4.11786V4.11888V4.1199V4.12092V4.12194V4.12296V4.12398V4.125V4.12602V4.12704V4.12806V4.12908V4.1301V4.13112V4.13214V4.13316V4.13418V4.1352V4.13622V4.13724V4.13826V4.13928V4.1403V4.14132V4.14234V4.14337V4.14439V4.14541V4.14643V4.14745V4.14847V4.14949V4.15051V4.15153V4.15255V4.15357V4.15459V4.15561V4.15663V4.15765V4.15868V4.1597V4.16072V4.16174V4.16276V4.16378V4.1648V4.16582V4.16684V4.16786V4.16888V4.16991V4.17093V4.17195V4.17297V4.17399V4.17501V4.17603V4.17705V4.17807V4.17909V4.18012V4.18114V4.18216V4.18318V4.1842V4.18522V4.18624V4.18726V4.18829V4.18931V4.19033V4.19135V4.19237V4.19339V4.19441V4.19544V4.19646V4.19748V4.1985V4.19952V4.20054V4.20156V4.20259V4.20361V4.20463V4.20565V4.20667V4.20769V4.20871V4.20974V4.21076V4.21178V4.2128V4.21382V4.21485V4.21587V4.21689V4.21791V4.21893V4.21995V4.22098V4.222V4.22302V4.22404V4.22506V4.22609V4.22711V4.22813V4.22915V4.23017V4.2312V4.23222V4.23324V4.23426V4.23529V4.23631V4.23733V4.23835V4.23937V4.2404V4.24142V4.24244V4.24346V4.24449V4.24551V4.24653V4.24755V4.24858V4.2496V4.25062V4.25164V4.25267V4.25369V4.25471V4.25573V4.25676V4.25778V4.2588V4.25983V4.26085V4.26187V4.26289V4.26392V4.26494V4.26596V4.26699V4.26801V4.26903V4.27005V4.27108V4.2721V4.27312V4.27415V4.27517V4.27619V4.27722V4.27824V4.27926V4.28029V4.28131V4.28233V4.28336V4.28438V4.2854V4.28643V4.28745V4.28847V4.2895V4.29052V4.29154V4.29257V4.29359V4.29462V4.29564V4.29666V4.29769V4.29871V4.29974V4.30076V4.30178V4.30281V4.30383V4.30485V4.30588V4.3069V4.30793V4.30895V4.30998V4.311V4.31202V4.31305V4.31407V4.3151V4.31612V4.31715V4.31817V4.31919V4.32022V4.32124V4.32227V4.32329V4.32432V4.32534V4.32637V4.32739V4.32842V4.32944V4.33046V4.33149V4.33251V4.33354V4.33456V4.33559V4.33661V4.33764V4.33866V4.33969V4.34071V4.34174V4.34276V4.34379V4.34482V4.34584V4.34687V4.34789V4.34892V4.34994V4.35097V4.35199V4.35302V4.35404V4.35507V4.35609V4.35712V4.35815V4.35917V4.3602V4.36122V4.36225V4.36328V4.3643V4.36533V4.36635V4.36738V4.36841V4.36943V4.37046V4.37148V4.37251V4.37354V4.37456V4.37559V4.37661V4.37764V4.37867V4.37969V4.38072V4.38175V4.38277V4.3838V4.38483V4.38585V4.38688V4.38791V4.38893V4.38996V4.39099V4.39201V4.39304V4.39407V4.3951V4.39612V4.39715V4.39818V4.3992V4.40023V4.40126V4.40229V4.40331V4.40434V4.40537V4.40639V4.40742V4.40845V4.40948V4.4105V4.41153V4.41256V4.41359V4.41462V4.41564V4.41667V4.4177V4.41873V4.41976V4.42078V4.42181V4.42284V4.42387V4.4249V4.42592V4.42695V4.42798V4.42901V4.43004V4.43107V4.43209V4.43312V4.43415V4.43518V4.43621V4.43724V4.43827V4.43929V4.44032V4.44135V4.44238V4.44341V4.44444V4.44547V4.4465V4.44753V4.44856V4.44958V4.45061V4.45164V4.45267V4.4537V4.45473V4.45576V4.45679V4.45782V4.45885V4.45988V4.46091V4.46194V4.46297V4.464V4.46503V4.46606V4.46709V4.46812V4.46915V4.47018V4.47121V4.47224V4.47327V4.4743V4.47533V4.47636V4.47739V4.47842V4.47945V4.48048V4.48151V4.48254V4.48357V4.4846V4.48564V4.48667V4.4877V4.48873V4.48976V4.49079V4.49182V4.49285V4.49388V4.49491V4.49595V4.49698V4.49801V4.49904V4.50007V4.5011V4.50213V4.50317V4.5042V4.50523V4.50626V4.50729V4.50833V4.50936V4.51039V4.51142V4.51245V4.51349V4.51452V4.51555V4.51658V4.51761V4.51865V4.51968V4.52071V4.52174V4.52278V4.52381V4.52484V4.52587V4.52691V4.52794C17.5236 9.75064 13.5554 15.7536 6.29791 15.7536Z" stroke="#1E1B1B" stroke-width="0.6"/>
</svg>
