<svg width="28" height="24" viewBox="0 0 28 24" fill="none" xmlns="http://www.w3.org/2000/svg">
<path d="M13.3742 15.2998C13.3742 15.7554 13.7436 16.1248 14.1992 16.1248C14.6549 16.1248 15.0242 15.7554 15.0242 15.2998H13.3742ZM14.7826 0.41644C14.4604 0.0942583 13.938 0.0942583 13.6159 0.41644L8.36559 5.66671C8.04341 5.98889 8.04341 6.51125 8.36559 6.83344C8.68777 7.15562 9.21013 7.15562 9.53231 6.83344L14.1992 2.16653L18.8661 6.83344C19.1883 7.15562 19.7107 7.15562 20.0329 6.83344C20.355 6.51125 20.355 5.98889 20.0329 5.66671L14.7826 0.41644ZM15.0242 15.2998V0.999804H13.3742V15.2998H15.0242Z" fill="white"/>
<path d="M1 8.1499V21.3499C1 22.2612 1.73873 22.9999 2.65 22.9999H25.2C26.1113 22.9999 26.85 22.2612 26.85 21.3499V8.1499" stroke="white" stroke-width="1.65" stroke-linecap="round"/>
</svg>
