<svg width="20" height="18" viewBox="0 0 20 18" fill="none" xmlns="http://www.w3.org/2000/svg">
<path d="M9.04268 17.3335C9.29059 17.5814 9.62385 17.7196 9.97336 17.7196C10.3188 17.7196 10.6602 17.5773 10.904 17.3335L18.2073 10.0303C19.3168 8.92075 19.9264 7.44548 19.9305 5.88079C19.9305 4.31204 19.3209 2.83676 18.2113 1.72725C17.1018 0.617747 15.6306 0.0081282 14.0619 0.0081282C12.5216 0.0081282 11.0707 0.597426 9.9693 1.67036C8.86386 0.593362 7.4089 0 5.86453 0C4.29984 0 2.82863 0.609619 1.71912 1.71506C0.609619 2.82457 0 4.29984 0 5.8686C0 7.43328 0.613683 8.90856 1.72319 10.0181L9.04268 17.3335ZM2.42628 2.42222C3.34477 1.50373 4.56808 0.99571 5.8686 0.99571C7.16912 0.99571 8.39648 1.50373 9.31904 2.42628L9.61978 2.72703C9.71326 2.8205 9.83925 2.87334 9.97336 2.87334C10.1034 2.87334 10.2335 2.8205 10.3269 2.72703L10.6196 2.43441C11.5421 1.51185 12.7654 1.00384 14.07 1.00384C15.3705 1.00384 16.5938 1.51185 17.5123 2.43035C18.4349 3.3529 18.9388 4.5762 18.9388 5.87672C18.9388 7.17724 18.4308 8.40055 17.5082 9.3231L10.201 16.6304C10.0831 16.7483 9.86769 16.7483 9.74577 16.6304L2.43035 9.31497C1.50779 8.39242 0.999775 7.16912 0.999775 5.8686C0.999775 4.56808 1.50779 3.34477 2.42628 2.42222Z" fill="#D7D2CE"/>
</svg>
