<svg width="22" height="15" viewBox="0 0 22 15" fill="none" xmlns="http://www.w3.org/2000/svg">
<path d="M20.6161 7.11561V7.11568L20.6161 7.1163L20.6161 7.12303L20.616 7.15021L20.6153 7.2562C20.6144 7.34859 20.6128 7.48272 20.6095 7.64877C20.6029 7.98103 20.5898 8.4402 20.5635 8.9479C20.5103 9.97539 20.4051 11.1602 20.2049 11.9056L20.2048 11.9061C20.107 12.2718 19.9146 12.6053 19.6469 12.873C19.3793 13.1407 19.0458 13.3331 18.6801 13.4308C18.3254 13.525 17.6665 13.6032 16.8443 13.6642C16.033 13.7244 15.0952 13.7659 14.2032 13.7943C13.3117 13.8228 12.4691 13.8381 11.8492 13.8464C11.5393 13.8505 11.2852 13.8528 11.1087 13.8541L10.9049 13.8554L10.8518 13.8556L10.8383 13.8557L10.835 13.8557L10.8348 13.8557L10.8341 13.8557L10.834 13.8557L10.8306 13.8557L10.8172 13.8557L10.7641 13.8556C10.7174 13.8555 10.6486 13.8553 10.5604 13.8549C10.3839 13.8541 10.13 13.8524 9.82021 13.8491C9.20051 13.8425 8.35824 13.8292 7.46716 13.8028C6.57543 13.7763 5.63804 13.7367 4.82712 13.6775C4.00487 13.6176 3.34659 13.5395 2.99283 13.4445L2.99233 13.4444C2.62659 13.3467 2.29307 13.1543 2.02538 12.8866C1.75769 12.6189 1.56529 12.2854 1.46756 11.9196L1.4675 11.9194C1.26724 11.1716 1.162 9.98657 1.10882 8.95976C1.08254 8.45234 1.06939 7.99359 1.06281 7.66168C1.05952 7.49582 1.05788 7.36185 1.05706 7.26957L1.05635 7.16372L1.05626 7.13658L1.05625 7.12986L1.05625 7.12826L1.05625 7.12791V7.12787V7.12785V7.12781L1.05625 7.12746L1.05625 7.12586L1.05626 7.11913L1.05635 7.09195L1.05706 6.98595C1.05788 6.89356 1.05952 6.75943 1.06281 6.59339C1.06939 6.26112 1.08254 5.80196 1.10882 5.29425C1.16201 4.26676 1.26725 3.08193 1.46743 2.33658L1.46772 2.33549C1.56487 1.96966 1.75699 1.63602 2.02463 1.36838C2.29227 1.10075 2.62591 0.908616 2.99174 0.811472L2.99255 0.811254C3.34762 0.716164 4.00664 0.638155 4.82902 0.578183C5.64016 0.519031 6.57741 0.479409 7.46886 0.452933C8.35966 0.426476 9.2015 0.413237 9.82085 0.406616C10.1304 0.403306 10.3842 0.401652 10.5605 0.400825C10.6487 0.400412 10.7175 0.400206 10.7641 0.400103L10.8172 0.400013L10.8306 0.400002L10.834 0.4L10.8348 0.4L10.835 0.4L10.835 0L10.8351 0.4L10.8353 0.4L10.8361 0.4L10.8394 0.400002L10.8529 0.400013L10.906 0.400102L11.1098 0.400817C11.2863 0.401635 11.5404 0.403271 11.8502 0.406546C12.4702 0.413096 13.3128 0.426195 14.2042 0.452371C15.0962 0.478566 16.0339 0.517769 16.8452 0.576298C17.6676 0.635637 18.3264 0.712833 18.6805 0.806935L18.6806 0.806951C19.0464 0.904094 19.38 1.09622 19.6477 1.36386C19.9152 1.63134 20.1072 1.96473 20.2044 2.33028C20.3996 3.07863 20.5047 4.26228 20.5593 5.28666C20.5863 5.79329 20.6005 6.25129 20.6079 6.58264C20.6117 6.74823 20.6137 6.88198 20.6148 6.97411L20.6158 7.07982L20.616 7.10694L20.6161 7.11366L20.6161 7.11429V7.11435V7.1147V7.11526L20.6161 7.11561ZM8.40107 10.1697V10.8626L9.00109 10.5161L14.2848 7.46522L14.8848 7.11882L14.2848 6.77242L9.00109 3.72149L8.40107 3.37504V4.06789V10.1697Z" stroke="#1E1B1B" stroke-width="0.8"/>
</svg>
