<svg id="icon" viewBox="0 0 19 19" fill="none" xmlns="http://www.w3.org/2000/svg">
<path d="M9.5 19C4.26166 19 0 14.7383 0 9.5C0 4.26166 4.26166 0 9.5 0C14.7383 0 19 4.26166 19 9.5C19 14.7383 14.7383 19 9.5 19ZM9.5 0.808508C4.70754 0.808508 0.808508 4.70754 0.808508 9.5C0.808508 14.2925 4.70754 18.1915 9.5 18.1915C14.2925 18.1915 18.1915 14.2925 18.1915 9.5C18.1915 4.70754 14.2925 0.808508 9.5 0.808508Z" fill="#C9A791"/>
<path d="M9.49947 16.8181C8.54943 16.8181 7.41699 16.1658 7.41699 13.0574C7.41699 10.927 8.02794 6.948 9.49947 6.948C10.971 6.948 11.5819 10.927 11.5819 13.0574C11.5819 16.1658 10.4495 16.8181 9.49947 16.8181ZM9.49947 7.75655C9.08 7.77845 8.2255 10.246 8.2255 13.0575C8.2255 14.1601 8.39092 16.0097 9.49947 16.0097C10.608 16.0097 10.7734 14.1601 10.7734 13.0575C10.7734 10.2478 9.91894 7.77946 9.49947 7.75655Z" fill="#C9A791"/>
<path d="M9.49948 5.82709C8.49438 5.82709 7.67676 5.00947 7.67676 4.00437C7.67676 2.99943 8.49438 2.18188 9.49948 2.18188C10.5044 2.18188 11.322 2.99947 11.322 4.00437C11.322 5.00947 10.5044 5.82709 9.49948 5.82709ZM9.49948 2.99039C8.94026 2.99039 8.48527 3.44519 8.48527 4.00437C8.48527 4.56355 8.94026 5.01858 9.49948 5.01858C10.0587 5.01858 10.5135 4.56359 10.5135 4.00437C10.5135 3.44515 10.0587 2.99039 9.49948 2.99039Z" fill="#C9A791"/>
</svg>
