<svg width="132" height="130" viewBox="0 0 132 130" fill="none" xmlns="http://www.w3.org/2000/svg">
<path d="M65.9763 53.2158C62.3807 53.2158 59.457 56.1001 59.457 59.6437C59.457 63.1873 62.3807 66.0705 65.9763 66.0705C69.5718 66.0705 72.4955 63.187 72.4955 59.6437C72.4955 56.0993 69.5708 53.2158 65.9763 53.2158Z" fill="#E3DCD0"/>
<path d="M71.0047 67.7286C70.8634 67.7286 70.737 67.6875 70.6096 67.6484C69.2415 68.4238 67.6632 68.8726 65.976 68.8726C64.2939 68.8726 62.7193 68.4268 61.3543 67.6563C61.2368 67.6875 61.1202 67.7296 60.9918 67.7296C52.9673 67.7296 46.4369 73.5883 46.3828 80.8092C51.0194 86.4637 58.0869 90.0882 65.9999 90.0882C73.9139 90.0882 80.9814 86.4637 85.618 80.8092C85.5607 73.5866 79.0295 67.7286 71.0049 67.7286L71.0047 67.7286Z" fill="#E3DCD0"/>
<path d="M65.9995 40.0698C52.068 40.0698 40.7344 51.2896 40.7344 65.0791C40.7344 69.5339 41.9296 73.7098 43.9999 77.3355C45.5912 70.9789 51.3291 66.0696 58.4618 65.1134C57.312 63.5803 56.6255 61.6922 56.6255 59.6437C56.6255 54.5524 60.8216 50.4116 65.9766 50.4116C71.1329 50.4116 75.3277 54.5534 75.3277 59.6437C75.3277 61.6892 74.6422 63.5773 73.4954 65.1074C80.6498 66.049 86.4046 70.9651 87.9997 77.3345C90.0681 73.708 91.2653 69.5329 91.2653 65.0781C91.2662 51.2886 79.9317 40.0698 65.9991 40.0698H65.9995Z" fill="#E3DCD0"/>
<path d="M33.2462 17.0939C33.3282 17.1692 33.4161 17.2386 33.4951 17.3168C34.1026 17.9181 34.6162 18.5772 35.0538 19.2694C41.1849 15.1999 47.9314 12.432 55.1539 11.023C54.9701 10.2281 54.8625 9.40579 54.8625 8.55609C54.8625 8.44267 54.8763 8.33218 54.8793 8.21973C47.0917 9.6981 39.8278 12.6782 33.2461 17.0939L33.2462 17.0939Z" fill="#E3DCD0"/>
<path d="M65.9996 16.7742C70.5778 16.7742 74.3018 13.0879 74.3018 8.55608C74.3018 4.02424 70.5778 0.335938 65.9996 0.335938C61.4213 0.335938 57.6953 4.02223 57.6953 8.55608C57.6953 13.0862 61.4211 16.7742 65.9996 16.7742Z" fill="#E3DCD0"/>
<path d="M77.1302 8.5551C77.1302 9.40281 77.0236 10.2261 76.8398 11.021C84.0575 12.43 90.8068 15.1999 96.9379 19.2714C97.3755 18.5772 97.8891 17.9202 98.4986 17.3178C98.5796 17.2377 98.6655 17.1702 98.7495 17.0939C92.166 12.6783 84.898 9.7001 77.1142 8.21777C77.1172 8.33022 77.13 8.4407 77.13 8.55511L77.1302 8.5551Z" fill="#E3DCD0"/>
<path d="M100.507 30.9212C102.074 32.4729 104.16 33.3274 106.378 33.3274C108.596 33.3274 110.68 32.4729 112.249 30.9212C113.818 29.3685 114.683 27.3035 114.683 25.1093C114.683 22.9151 113.82 20.849 112.249 19.2974C110.682 17.7447 108.598 16.8892 106.378 16.8892C104.159 16.8892 102.074 17.7437 100.507 19.2974C97.2686 22.5016 97.2686 27.717 100.507 30.9212Z" fill="#E3DCD0"/>
<path d="M114.246 32.9035C113.642 33.5009 112.977 34.0113 112.273 34.4494C116.386 40.5164 119.183 47.1936 120.605 54.3432C121.406 54.1613 122.239 54.0548 123.097 54.0548C123.212 54.0548 123.323 54.0684 123.436 54.0714C121.941 46.3636 118.93 39.1722 114.471 32.6582C114.395 32.7394 114.327 32.8244 114.246 32.9036L114.246 32.9035Z" fill="#E3DCD0"/>
<path d="M123.101 56.8579C118.523 56.8579 114.797 60.5442 114.797 65.0781C114.797 69.611 118.523 73.2963 123.101 73.2963C127.68 73.2963 131.403 69.61 131.403 65.0781C131.404 60.5462 127.681 56.8579 123.101 56.8579Z" fill="#E3DCD0"/>
<path d="M106.378 96.8271C104.161 96.8271 102.075 97.6817 100.507 99.2354C98.9395 100.788 98.0742 102.852 98.0742 105.047C98.0742 107.243 98.9375 109.306 100.507 110.859C102.075 112.412 104.161 113.268 106.378 113.268C108.595 113.268 110.68 112.414 112.25 110.859C113.818 109.307 114.684 107.243 114.684 105.047C114.684 102.852 113.82 100.787 112.25 99.2354C110.68 97.6837 108.596 96.8271 106.378 96.8271Z" fill="#E3DCD0"/>
<path d="M65.9996 113.382C61.4213 113.382 57.6953 117.07 57.6953 121.602C57.6953 126.134 61.4193 129.821 65.9996 129.821C70.5788 129.821 74.3018 126.134 74.3018 121.602C74.3018 117.071 70.5778 113.382 65.9996 113.382Z" fill="#E3DCD0"/>
<path d="M54.8616 121.6C54.8616 120.752 54.9683 119.928 55.153 119.133C47.9313 117.724 41.185 114.957 35.0557 110.887C34.6122 111.583 34.0966 112.242 33.495 112.838C33.416 112.919 33.3281 112.984 33.2461 113.061C39.8265 117.475 47.0927 120.455 54.8793 121.936C54.8763 121.823 54.8615 121.715 54.8615 121.6L54.8616 121.6Z" fill="#E3DCD0"/>
<path d="M17.7489 97.2529C18.3524 96.6555 19.0162 96.1451 19.7215 95.7071C15.6093 89.6381 12.8141 82.9568 11.3925 75.8125C10.5895 75.9963 9.75676 76.1009 8.8984 76.1009C8.78382 76.1009 8.6722 76.0872 8.55859 76.0843C10.0541 83.7891 13.0647 90.9807 17.5256 97.4975C17.5996 97.4173 17.6698 97.3322 17.7488 97.253L17.7489 97.2529Z" fill="#E3DCD0"/>
<path d="M98.7635 113.073C98.6776 112.992 98.5867 112.921 98.5027 112.839C97.9022 112.244 97.3895 111.59 96.948 110.897C90.802 114.973 84.0448 117.719 76.8398 119.118C77.0265 119.917 77.1342 120.745 77.1342 121.601C77.1342 121.71 77.1204 121.815 77.1174 121.923C84.8873 120.451 92.1652 117.497 98.7635 113.073L98.7635 113.073Z" fill="#E3DCD0"/>
<path d="M123.096 76.099C122.24 76.099 121.408 75.9934 120.605 75.8115C119.182 82.953 116.386 89.6323 112.273 95.7052C112.977 96.1442 113.642 96.6546 114.245 97.2511C114.326 97.3312 114.394 97.4183 114.473 97.4994C118.934 90.9797 121.942 83.7853 123.437 76.0834C123.322 76.0863 123.212 76.099 123.096 76.099L123.096 76.099Z" fill="#E3DCD0"/>
<path d="M25.6246 113.268C27.8421 113.268 29.9284 112.413 31.496 110.858C33.0636 109.307 33.9269 107.244 33.9269 105.046C33.9269 102.85 33.0636 100.786 31.496 99.2344C29.9274 97.6827 27.8412 96.8262 25.6246 96.8262C23.407 96.8262 21.3207 97.6808 19.7532 99.2344C18.1846 100.786 17.3203 102.851 17.3203 105.046C17.3203 107.242 18.1836 109.305 19.7532 110.858C21.3208 112.413 23.4069 113.268 25.6246 113.268Z" fill="#E3DCD0"/>
<path d="M8.89921 54.0549C9.75758 54.0549 10.5883 54.1614 11.3914 54.3433C12.8128 47.1957 15.6102 40.5177 19.7203 34.4495C19.0151 34.0105 18.3513 33.502 17.7488 32.9046C17.6697 32.8264 17.5996 32.7394 17.5235 32.6582C13.0647 39.173 10.052 46.3656 8.55859 54.0724C8.67416 54.0695 8.7838 54.0548 8.89939 54.0548L8.89921 54.0549Z" fill="#E3DCD0"/>
<path d="M17.2002 65.0781C17.2002 60.5462 13.4762 56.8579 8.89796 56.8579C4.31977 56.8579 0.59375 60.5442 0.59375 65.0781C0.59375 69.611 4.31775 73.2963 8.89796 73.2963C13.4744 73.2963 17.2002 69.61 17.2002 65.0781Z" fill="#E3DCD0"/>
<path d="M25.6246 33.3289C27.8421 33.3289 29.9284 32.4743 31.4959 30.9226C34.7329 27.7164 34.7329 22.502 31.4959 19.2998C29.9274 17.7472 27.8412 16.8916 25.6246 16.8916C23.4079 16.8916 21.3207 17.7462 19.7532 19.2998C18.1846 20.8515 17.3203 22.9165 17.3203 25.1117C17.3203 27.3068 18.1836 29.372 19.7532 30.9236C21.3208 32.4744 23.4049 33.3289 25.6246 33.3289V33.3289Z" fill="#E3DCD0"/>
</svg>
