<svg width="132" height="121" viewBox="0 0 132 121" fill="none" xmlns="http://www.w3.org/2000/svg">
<path d="M66.0742 112.125C49.8101 112.125 35.199 104.758 25.6884 93.1602H15.4883C26.1019 109.534 44.8473 120.448 66.0739 120.448C87.3006 120.448 106.046 109.533 116.797 93.1602H106.597C96.9501 104.758 82.3385 112.125 66.0737 112.125H66.0742Z" fill="#E3DCD0"/>
<path d="M32.7175 20.5738C41.8149 13.2065 53.3929 8.70369 66.0737 8.70369C78.7546 8.70369 90.3326 13.2062 99.4299 20.5738C102.186 19.346 105.356 18.6637 108.527 18.6637H109.493C98.4656 7.47504 83.1661 0.380859 66.0745 0.380859C48.9828 0.380859 33.6831 7.33909 22.6562 18.5275H23.6216C26.9291 18.5265 29.9615 19.346 32.718 20.5737L32.7175 20.5738Z" fill="#E3DCD0"/>
<path d="M23.6234 54.1381C31.2046 54.1381 37.407 47.9985 37.407 40.4941C37.407 32.9896 31.2046 26.8501 23.6234 26.8501C16.0422 26.8501 9.83984 32.9896 9.83984 40.4941C9.83984 47.9985 16.0422 54.1381 23.6234 54.1381Z" fill="#E3DCD0"/>
<path d="M35.7505 83.6088C35.7505 76.3775 38.507 69.6917 42.9182 64.6437C40.9885 61.7779 38.3696 59.3225 35.337 57.6855C32.0287 60.0048 27.8944 61.2327 23.4831 61.2327C19.0719 61.2327 15.0752 59.8679 11.6293 57.6855C5.01342 61.3696 0.464844 68.4637 0.464844 76.5144V79.3802C0.464844 82.3818 2.94539 84.8373 5.97777 84.8373L35.7503 84.8363L35.7505 83.6088Z" fill="#E3DCD0"/>
<path d="M94.7422 40.4941C94.7422 47.9985 100.945 54.1381 108.526 54.1381C116.107 54.1381 122.309 47.9985 122.309 40.4941C122.309 32.9896 116.107 26.8501 108.526 26.8501C100.945 26.8501 94.7422 32.9906 94.7422 40.4941Z" fill="#E3DCD0"/>
<path d="M120.383 57.8213C116.937 60.1407 112.94 61.3685 108.529 61.3685C104.118 61.3685 100.121 60.0037 96.675 57.8213C93.6426 59.4583 91.0234 61.9148 89.0938 64.7795C93.6423 69.6914 96.399 76.3774 96.399 83.6085V84.9733H126.034C129.066 84.9733 131.547 82.5179 131.547 79.5162V76.6505C131.548 68.4635 126.999 61.5056 120.383 57.8214L120.383 57.8213Z" fill="#E3DCD0"/>
<path d="M66.0765 61.2329C73.6577 61.2329 79.8601 55.0933 79.8601 47.5889C79.8601 40.0844 73.6577 33.9448 66.0765 33.9448C58.4953 33.9448 52.293 40.0844 52.293 47.5889C52.293 55.0933 58.4953 61.2329 66.0765 61.2329Z" fill="#E3DCD0"/>
<path d="M43.0547 83.6093V86.475C43.0547 89.4767 45.5353 91.9321 48.5676 91.9321H83.44C86.4724 91.9321 88.953 89.4767 88.953 86.475L88.9539 83.6093C88.9539 75.5595 84.4054 68.4644 77.7895 64.7803C74.3436 67.0996 70.3469 68.3275 65.9356 68.3275C61.5244 68.3275 57.5277 66.9627 54.0818 64.7803C47.6035 68.4644 43.0547 75.5595 43.0547 83.6093H43.0547Z" fill="#E3DCD0"/>
</svg>
