<svg width="133" height="114" viewBox="0 0 133 114" fill="none" xmlns="http://www.w3.org/2000/svg">
<path d="M131.029 76.5705C130.33 75.788 129.395 75.2504 128.361 75.0394C127.328 74.8284 126.253 74.9552 125.299 75.3999C123.696 75.9689 122.124 76.6182 120.587 77.3442C114.131 80.4579 107.933 84.0703 102.052 88.1488C99.3084 90.1497 96.1427 91.5099 92.7927 92.1279C88.4454 92.7936 84.0969 93.6402 79.7321 93.9291C73.2747 94.5232 66.7806 94.7757 60.3041 95.1537C59.8422 95.1902 59.3778 95.1361 58.9388 94.9917C58.2282 94.8272 57.7384 94.1828 57.7752 93.4606C57.7346 92.7396 58.2409 92.1003 58.9578 91.9659C59.7826 91.7712 60.6226 91.6394 61.4677 91.5703C68.4708 90.9046 75.4748 90.2552 82.4601 89.5719C84.5334 89.3735 86.6082 89.1223 88.6813 88.8522V88.851C90.1316 88.6286 91.4386 87.8537 92.3191 86.6906C93.0881 85.7661 93.5677 84.6407 93.6996 83.4513C93.8316 82.2619 93.6121 81.0598 93.0652 79.9921C92.5729 78.863 91.7418 77.9109 90.6835 77.2665C89.6253 76.6222 88.3932 76.3157 87.1523 76.3898C79.4946 76.3898 71.8532 76.2642 64.1956 76.2278C60.5081 76.2478 56.8362 75.763 53.2818 74.7883C43.8958 71.8404 33.7398 72.4433 24.7764 76.4802C24.3767 76.6598 23.9579 76.7867 23.4123 76.9839C21.4658 74.0849 18.6464 73.8513 15.5543 74.193C12.7894 74.517 10.0967 74.679 7.24046 74.9491V74.9504C5.32573 75.0596 3.54288 75.9514 2.31858 77.4122C1.09412 78.8742 0.538327 80.7733 0.78322 82.6563C1.40115 90.6698 2.02038 98.6644 2.47463 106.696C2.45052 108.713 3.30448 110.642 4.82081 111.99C6.33587 113.339 8.36475 113.974 10.3888 113.736C13.3719 113.448 16.3917 113.321 19.4841 113.159V113.16C20.8 113.221 22.1056 112.911 23.2503 112.262C24.3935 111.616 25.3274 110.658 25.9416 109.504H27.3056L58.7944 110.927C64.4332 111.161 70.0723 111.251 75.6932 111.647C81.346 112.193 87.027 110.931 91.9008 108.046L108.545 98.034L128.337 86.0967C129.868 85.3418 131.071 84.0619 131.721 82.4944C132.174 81.5423 132.35 80.4822 132.228 79.4347C132.105 78.3884 131.69 77.3957 131.029 76.5705ZM16.8654 107.947C18.1395 107.947 20.6034 103.2 19.8383 102.482C19.0744 101.763 9.93438 104.966 9.95211 103.922C7.94656 103.922 11.3866 108.453 13.4677 108.367C15.5741 108.403 17.5591 101.785 17.6646 103.868C17.6888 104.861 17.3132 105.823 16.6216 106.543C15.9288 107.263 17.8691 107.923 16.8654 107.947Z" fill="#E3DCD0"/>
<path d="M76.1458 0.744262C67.2128 0.720398 58.6353 4.2134 52.3059 10.4546C45.9768 16.6945 42.4137 25.1704 42.4024 34.0142C42.391 42.8579 45.9323 51.3425 52.2465 57.5988C58.5606 63.8551 67.1277 67.3696 76.0607 67.3683C84.9949 67.3671 93.5611 63.849 99.8726 57.5902C106.184 51.3313 109.723 42.8457 109.708 34.0032C109.737 25.1797 106.212 16.709 99.9119 10.4665C93.613 4.22402 85.0595 0.725934 76.1458 0.744905V0.744262ZM85.1498 47.4551H85.1511C83.73 49.162 81.8316 50.4155 79.6936 51.056L78.8751 51.2897V55.5575H73.2909H73.2897C73.1399 54.8529 73.0968 54.1307 73.1628 53.4147V51.2895C68.3601 49.7948 65.3223 46.9136 64.849 41.8367H64.8503C66.7104 41.5566 68.5985 41.5089 70.4702 41.6923C70.4702 41.6923 70.5793 41.6923 70.5971 41.8367H70.5984C70.7658 43.5123 71.9243 44.9278 73.5447 45.4377C74.5953 45.9024 75.7564 46.0645 76.8957 45.9062C78.0351 45.7467 79.1048 45.2719 79.9841 44.5371C80.9523 43.8375 81.4903 42.6945 81.4091 41.5113C81.3279 40.3269 80.6389 39.2668 79.5844 38.7028C78.1658 37.9467 76.6381 37.3702 75.1459 36.722C73.6537 36.0739 71.8531 35.3718 70.2708 34.5617C68.7342 33.8181 67.4272 32.6801 66.4871 31.2658C65.3413 29.471 64.8515 27.3433 65.0964 25.233C65.3413 23.1241 66.307 21.161 67.8334 19.67C69.3028 18.2494 71.1211 17.2307 73.1081 16.717V12.4678H78.8206V16.6816C83.5141 18.1588 86.5328 20.9849 86.934 26.1171H81.2952C81.2952 26.1171 81.1861 26.1171 81.1861 25.9726H81.1848C80.9221 24.1602 79.5264 22.7131 77.7107 22.3703C75.8429 21.7649 73.7913 22.1304 72.2532 23.3438C71.304 24.0333 70.7508 25.1361 70.7686 26.3017C70.7863 27.4673 71.3738 28.5525 72.3445 29.2132C73.7594 30.066 75.2579 30.7732 76.8198 31.3196C78.548 32.0217 80.2939 32.7238 81.9677 33.5528C83.5957 34.3479 84.9496 35.6001 85.8606 37.1538C86.7894 38.7464 87.217 40.5766 87.0914 42.4117C86.9645 44.2455 86.2894 46.0014 85.1512 47.4548L85.1498 47.4551Z" fill="#E3DCD0"/>
<path d="M120.768 71.4389L100.176 83.0345L99.5938 78.7852C101.85 77.6146 104.141 76.3548 106.488 75.1842C109.325 73.8151 112.2 72.4838 115.092 71.2228H115.093C115.967 70.7392 116.96 70.5043 117.961 70.542C118.962 70.5809 119.933 70.8912 120.768 71.4388L120.768 71.4389Z" fill="#E3DCD0"/>
<path d="M94.3906 72.32C98.5196 70.7537 102.34 69.205 106.251 67.8547V67.8535C107.843 67.2732 109.629 67.5671 110.945 68.6285L97.1377 74.8407L94.3906 72.32Z" fill="#E3DCD0"/>
</svg>
