<svg width="162" height="139" viewBox="0 0 162 139" fill="none" xmlns="http://www.w3.org/2000/svg">
<path d="M160.009 93.2501C159.154 92.2928 158.01 91.6351 156.745 91.377C155.481 91.1188 154.166 91.274 152.999 91.818C151.038 92.514 149.115 93.3085 147.235 94.1966C139.337 98.0058 131.754 102.425 124.559 107.414C121.203 109.862 117.331 111.526 113.232 112.282C107.914 113.097 102.594 114.132 97.2545 114.486C89.3549 115.213 81.4103 115.521 73.4872 115.984C72.9221 116.029 72.354 115.962 71.8169 115.786C70.9476 115.584 70.3484 114.796 70.3935 113.913C70.3438 113.031 70.9632 112.249 71.8402 112.084C72.8492 111.846 73.8768 111.685 74.9106 111.6C83.4779 110.786 92.0464 109.991 100.592 109.155C103.128 108.913 105.666 108.605 108.203 108.275V108.273C109.977 108.001 111.576 107.053 112.653 105.631C113.594 104.5 114.18 103.123 114.342 101.668C114.503 100.213 114.235 98.7421 113.566 97.4359C112.963 96.0545 111.947 94.8898 110.652 94.1015C109.357 93.3133 107.85 92.9383 106.332 93.029C96.9641 93.029 87.6159 92.8753 78.2479 92.8308C73.7367 92.8553 69.2446 92.2622 64.8964 91.0698C53.4139 87.4635 40.9896 88.201 30.024 93.1396C29.5351 93.3593 29.0228 93.5145 28.3553 93.7558C25.9741 90.2093 22.5249 89.9235 18.7421 90.3415C15.3597 90.7379 12.0656 90.9361 8.57137 91.2665V91.268C6.22897 91.4017 4.0479 92.4927 2.55015 94.2797C1.05219 96.0683 0.37226 98.3916 0.671851 100.695C1.4278 110.499 2.18534 120.279 2.74105 130.104C2.71156 132.572 3.75626 134.932 5.61127 136.581C7.46472 138.231 9.94677 139.008 12.4229 138.716C16.0723 138.365 19.7666 138.209 23.5498 138.011V138.013C25.1595 138.086 26.7568 137.707 28.1571 136.914C29.5557 136.123 30.6982 134.952 31.4495 133.54H33.1182L71.6402 135.281C78.5385 135.566 85.4371 135.677 92.3135 136.161C99.2289 136.83 106.179 135.285 112.141 131.756L132.503 119.508L156.715 104.904C158.589 103.98 160.061 102.415 160.855 100.497C161.41 99.3324 161.625 98.0355 161.476 96.754C161.326 95.474 160.818 94.2596 160.009 93.2501ZM20.3461 131.635C21.9048 131.635 24.9191 125.828 23.9831 124.949C23.0486 124.07 11.867 127.987 11.8887 126.711C9.43518 126.711 13.6436 132.254 16.1895 132.149C18.7664 132.192 21.1947 124.097 21.3239 126.644C21.3534 127.86 20.8939 129.037 20.0479 129.917C19.2003 130.798 21.5739 131.606 20.3461 131.635Z" fill="#E3DCD0"/>
<path d="M92.8672 0.487453C81.939 0.458259 71.4456 4.73145 63.7025 12.3667C55.9598 20.0003 51.6009 30.3694 51.5869 41.1884C51.573 52.0075 55.9054 62.3872 63.6298 70.0409C71.3542 77.6946 81.8349 81.9941 92.7631 81.9925C103.693 81.991 114.172 77.6871 121.894 70.0303C129.615 62.3735 133.944 51.9926 133.925 41.1751C133.961 30.3808 129.649 20.018 121.942 12.3812C114.236 4.74444 103.772 0.465031 92.8672 0.48824V0.487453ZM103.882 57.6315H103.884C102.145 59.7197 99.823 61.2532 97.2074 62.0367L96.2062 62.3225V67.5437H89.3747H89.3731C89.19 66.6817 89.1372 65.7981 89.2179 64.9222V62.3224C83.3425 60.4938 79.6262 56.9691 79.0472 50.7582H79.0487C81.3244 50.4156 83.6342 50.3572 85.9239 50.5815C85.9239 50.5815 86.0574 50.5815 86.0792 50.7582H86.0807C86.2856 52.808 87.7028 54.5398 89.6851 55.1635C90.9704 55.732 92.3908 55.9303 93.7846 55.7367C95.1785 55.5415 96.4871 54.9607 97.5629 54.0618C98.7473 53.2059 99.4054 51.8076 99.3061 50.3601C99.2067 48.9111 98.3638 47.6143 97.0739 46.9244C95.3384 45.9993 93.4695 45.2941 91.644 44.5011C89.8185 43.7082 87.6157 42.8493 85.68 41.8582C83.8001 40.9486 82.2013 39.5564 81.0512 37.8262C79.6495 35.6305 79.0503 33.0276 79.3499 30.4459C79.6495 27.866 80.8308 25.4644 82.6982 23.6403C84.4958 21.9025 86.7202 20.6563 89.151 20.0278V14.8295H96.1395V19.9846C101.881 21.7916 105.574 25.249 106.065 31.5274H99.1668C99.1668 31.5274 99.0333 31.5274 99.0333 31.3507H99.0317C98.7104 29.1335 97.0029 27.3632 94.7817 26.9439C92.4967 26.2033 89.9868 26.6504 88.1052 28.1347C86.944 28.9783 86.2672 30.3274 86.289 31.7533C86.3107 33.1793 87.0294 34.5069 88.2169 35.3151C89.9478 36.3585 91.781 37.2236 93.6917 37.892C95.806 38.7509 97.9418 39.6099 99.9895 40.624C101.981 41.5967 103.637 43.1287 104.752 45.0293C105.888 46.9777 106.411 49.2167 106.258 51.4616C106.102 53.705 105.277 55.8531 103.884 57.6311L103.882 57.6315Z" fill="#E3DCD0"/>
<path d="M147.456 86.9723L122.265 101.158L121.553 95.9596C124.313 94.5275 127.116 92.9863 129.987 91.5543C133.457 89.8794 136.975 88.2506 140.513 86.708H140.514C141.584 86.1164 142.798 85.829 144.022 85.8752C145.247 85.9228 146.435 86.3023 147.456 86.9723L147.456 86.9723Z" fill="#E3DCD0"/>
<path d="M115.187 88.0503C120.238 86.1342 124.912 84.2396 129.696 82.5877V82.5861C131.645 81.8762 133.829 82.2358 135.438 83.5342L118.548 91.134L115.187 88.0503Z" fill="#E3DCD0"/>
</svg>
