<svg id="icon" viewBox="0 0 161 148" fill="none" xmlns="http://www.w3.org/2000/svg">
<path d="M25.1214 65.6934L0 85.4223V147.063H61.6351V146.915L84.9549 126.179V65.7718L85 65.6934H25.1214ZM25.9439 68.0126H50.0045L30.8839 85.4223H4.43916L25.9439 68.0126ZM59.3188 144.746H2.32055V87.7458H59.3188V144.746ZM60.0266 85.4223H34.3319L53.4541 68.0126H79.0329L60.0266 85.4223ZM82.6356 125.135L61.6364 143.806V87.094L82.6356 67.8588V125.135V125.135Z" fill="white"/>
<path d="M41.5887 95.8711H20.8926V98.1904H41.5887V95.8711Z" fill="white"/>
<path d="M101.121 66L76 85.7289V147.37H137.635V147.222L160.955 126.485V66.0784L161 66H101.121ZM101.944 68.3193H126.004L106.884 85.7289H80.4392L101.944 68.3193ZM135.319 145.052H78.3206V88.0524H135.319V145.052ZM136.027 85.7289H110.332L129.454 68.3193H155.033L136.027 85.7289ZM158.636 125.441L137.636 144.113V87.4006L158.636 68.1654V125.441V125.441Z" fill="white"/>
<path d="M117.589 96.1777H96.8926V98.497H117.589V96.1777Z" fill="white"/>
<path d="M67.1214 0L42 19.7289V81.3699H103.635V81.2219L126.955 60.4853V0.07842L127 0H67.1214ZM67.9439 2.31929H92.0045L72.8839 19.7289H46.4392L67.9439 2.31929ZM101.319 79.0523H44.3206V22.0524H101.319V79.0523ZM102.027 19.7289H76.3319L95.4541 2.31929H121.033L102.027 19.7289ZM124.636 59.4414L103.636 78.1125V21.4006L124.636 2.1654V59.4414V59.4414Z" fill="white"/>
<path d="M83.5887 30.1777H62.8926V32.497H83.5887V30.1777Z" fill="white"/>
</svg>
