<svg id="icon" viewBox="0 0 183 161" fill="none" xmlns="http://www.w3.org/2000/svg">
<path d="M25.2605 113.884L23.8108 97.2941L41.0441 107.245L41.7769 116.093L41.7795 116.125L41.7834 116.156C42.0172 118.024 41.373 119.973 40.308 121.475L40.3037 121.481L40.2996 121.487L16.6733 155.503C16.6712 155.506 16.669 155.509 16.6669 155.512C14.0284 159.179 8.87175 160.107 5.05031 157.468C1.37816 154.832 0.451154 149.683 3.09528 145.869C3.09652 145.867 3.09775 145.866 3.09898 145.864L24.9913 114.88L25.3083 114.431L25.2605 113.884ZM136.714 130.138L136.73 130.122L136.746 130.105C146.507 119.746 153.813 113.999 158.635 110.853C161.046 109.281 162.833 108.36 163.995 107.837C164.098 107.791 164.196 107.748 164.289 107.708L180.731 158.933H91.2722C91.7295 158.017 92.3637 156.856 93.1881 155.581C95.1622 152.527 98.1819 148.891 102.41 146.37C105.799 144.36 109.889 143.101 114.414 141.708L114.767 141.599C119.368 140.182 124.342 138.619 129.002 135.955L131.267 134.66L129.008 133.354L85.4284 108.153L83.1775 106.851V109.451V150.439C83.1775 155.04 79.4999 158.715 74.8879 158.715C70.2758 158.715 66.5983 155.04 66.5983 150.439V114.52V113.653L65.8466 113.22L26.4734 90.5537L26.4581 90.5449L26.4425 90.5364C22.4071 88.3386 21.0723 83.3558 23.4522 79.4553L23.457 79.4474L23.4617 79.4395L25.7818 75.5293L26.5585 74.2202L25.2381 73.4627L7.69303 63.3985C7.69266 63.3983 7.69228 63.3981 7.69191 63.3978C5.11023 61.9077 4.20165 58.6363 5.75084 56.1494L5.76431 56.1278L5.77703 56.1057L21.42 28.9834C22.4505 27.4048 24.2828 26.4412 26.0863 26.4412H57.4845C63.1268 26.4412 67.9875 30.5528 69.2188 35.9904L69.2257 36.0205L69.2337 36.0503L86.0356 98.2452C86.2768 99.8865 86.1191 101.249 85.5251 102.382L84.8558 103.658L86.1035 104.378L133.527 131.751L134.523 132.326L135.337 131.514L136.025 130.826L136.714 130.138ZM27.0761 70.3418L28.373 71.0912L29.1243 69.7953L46.6725 39.525L47.9782 37.2727H45.3748H30.0017H29.138L28.7044 38.0196L14.9994 61.6277L14.2448 62.9276L15.5462 63.6796L27.0761 70.3418ZM51.833 82.9251L51.086 84.2279L52.3898 84.9733L71.3884 95.8352L74.531 97.6319L73.5802 94.139L65.4588 64.3038L64.5089 60.8142L62.7101 63.9518L51.833 82.9251ZM81.6318 1.89258C89.4958 1.89258 95.867 8.25813 95.867 16.1068C95.867 23.9554 89.4958 30.321 81.6318 30.321C73.7677 30.321 67.3959 23.9553 67.3959 16.1068C67.3959 8.25822 73.7677 1.89258 81.6318 1.89258Z" stroke="white" stroke-width="3"/>
</svg>
