<svg id="icon" viewBox="0 0 138 164" fill="none" xmlns="http://www.w3.org/2000/svg">
<path d="M135.126 34.4991H107.567L113.955 15.0553C114.273 14.0866 114.053 13.0214 113.379 12.2573C112.706 11.4924 111.675 11.1415 110.676 11.3368L83.3745 16.6395V12.7319C83.3745 11.5609 82.6641 10.5073 81.5803 10.0677L57.2648 0.210007C56.4392 -0.123018 55.5047 -0.0584364 54.7321 0.392859C53.9625 0.841821 53.4459 1.62381 53.3307 2.5085L49.22 34.4999H2.87506C1.28619 34.4999 0 35.7877 0 37.375V47.4373C0 54.5717 5.79759 60.3747 12.9234 60.3747H125.077C132.202 60.3747 138 54.5709 138 47.4373V37.3742C138 35.7861 136.715 34.4991 135.126 34.4991ZM83.3753 22.4947L106.965 17.9148L101.516 34.4991H83.3753V22.4947ZM58.5587 6.93976L77.6252 14.6694V20.1262V34.4999H55.0184L58.5587 6.93976ZM132.251 47.4365C132.251 51.3994 129.033 54.6238 125.077 54.6238H12.9242C8.96833 54.6238 5.75091 51.3994 5.75091 47.4365V40.2493H51.7512H80.494C80.494 40.2493 80.4987 40.2508 80.501 40.2508H103.596C103.6 40.2508 103.602 40.2493 103.605 40.2493H132.251V47.4365Z" fill="white"/>
<path d="M109.371 65.547C109.099 64.2094 107.92 63.2493 106.555 63.2493H31.4461C30.0813 63.2493 28.9025 64.2094 28.6301 65.547L11.5595 148.922C11.3852 149.769 11.6015 150.647 12.1493 151.317C12.694 151.986 13.511 152.375 14.3754 152.375H34.5001V163.875H40.2502V152.375H97.75V163.875H103.5V152.375H123.625C124.489 152.375 125.307 151.986 125.851 151.317C126.399 150.647 126.614 149.769 126.441 148.922L109.371 65.547ZM103.5 146.624H97.75H40.2502H34.5001H17.8994L33.7936 68.9986H104.209L120.103 146.624H103.5Z" fill="white"/>
<path d="M68.9998 80.4988C54.7311 80.4988 43.125 92.1072 43.125 106.374C43.125 120.64 54.7319 132.248 68.9998 132.248C83.2677 132.248 94.8746 120.64 94.8746 106.374C94.8746 92.1072 83.2685 80.4988 68.9998 80.4988ZM68.9998 126.499C57.9042 126.499 48.8751 117.472 48.8751 106.374C48.8751 95.2772 57.9042 86.2497 68.9998 86.2497C71.2127 86.2497 73.3361 86.6224 75.3296 87.2853L65.142 107.661L70.286 110.232L80.4713 89.8616C85.6939 93.5008 89.1253 99.5411 89.1253 106.374C89.1253 117.472 80.0962 126.499 68.9998 126.499Z" fill="white"/>
</svg>
