<svg   id="icon" viewBox="0 0 82 179" fill="none" xmlns="http://www.w3.org/2000/svg">
<path d="M62.2436 94.0957L62.1877 92.5967L60.4514 92.6616L60.7689 94.3698L69.0401 138.868C69.0302 138.882 69.0199 138.896 69.009 138.91C68.7891 139.203 68.3559 139.683 67.5605 140.254C65.9648 141.398 62.8994 142.914 57.1827 143.98L55.9577 144.209V145.455V170.5C55.9577 174.19 52.9639 177.185 49.2727 177.185H49.2725H49.2724H49.2723H49.2722H49.2721H49.2719H49.2718H49.2717H49.2716H49.2715H49.2713H49.2712H49.2711H49.271H49.2708C45.58 177.185 42.5877 174.19 42.5877 170.5V146.769V145.257L41.0756 145.269C40.9605 145.27 40.8662 145.271 40.778 145.273C40.6594 145.274 40.5516 145.276 40.4188 145.276C40.3486 145.276 40.2793 145.275 40.1963 145.274L40.1911 145.273C40.1127 145.272 40.0212 145.271 39.9249 145.271H38.4249V146.771V170.502V170.502C38.4264 174.19 35.4314 177.187 31.7399 177.187C28.0486 177.187 25.0549 174.192 25.0549 170.502V145.477V144.229L23.8286 144.002C18.1 142.939 15.076 141.418 13.5238 140.276C12.7505 139.706 12.3393 139.229 12.1347 138.942C12.1283 138.933 12.1222 138.924 12.1162 138.916L23.4963 88.4221L23.533 88.2592V88.0923V78.5732L20.6474 77.9987C16.8207 87.2298 14.2526 97.8993 13.1643 105.732C12.7568 108.658 10.2467 110.783 7.36894 110.783C7.10457 110.783 6.83436 110.764 6.55778 110.726L62.2436 94.0957ZM62.2436 94.0957L62.1878 92.5967L62.1879 92.5967L62.1886 92.5967L62.1912 92.5966L62.2011 92.5962L62.2389 92.5948L62.3744 92.5899C62.4871 92.5857 62.6392 92.5802 62.7962 92.5747C63.0877 92.5645 63.4579 92.552 63.5686 92.552C66.6938 92.552 70.0398 92.1764 72.8745 90.9764C75.6645 89.7953 77.9325 87.8335 79.0805 84.5901L79.0806 84.5897C79.9704 82.0774 79.4862 78.6341 77.7072 74.5945C75.9495 70.6035 73.0346 66.2785 69.4779 62.1695C65.9265 58.0665 61.7776 54.2279 57.5968 51.1977C53.7032 48.3757 49.8558 46.3084 46.4907 45.3404L42.52 49.5086L41.4565 50.625L40.3698 49.5312L36.3408 45.4757C28.8806 48.6261 5.06986 64.3705 1.56386 104.053L1.56064 104.089L1.55566 104.126C1.11466 107.329 3.35095 110.282 6.55745 110.726L62.2436 94.0957ZM55.4781 80.2574L57.2714 80.6155L57.2718 78.7867L57.2736 69.9365V69.9362C57.2736 67.9214 55.6363 66.291 53.6285 66.291H49.658C49.3877 64.5439 47.8757 63.2073 46.0559 63.2073H36.8102C34.9861 63.2073 33.4797 64.5475 33.2099 66.291H29.2375C27.223 66.291 25.5961 67.9282 25.5961 69.9362V106.113C25.5961 108.127 27.2246 109.759 29.2375 109.759H53.6267C55.6406 109.759 57.2718 108.124 57.2718 106.113V93.7111V92.4105L55.9843 92.2263C53.6629 91.8941 51.1016 91.3505 48.0959 90.5519C44.969 89.7167 43.1115 86.509 43.9441 83.3827C44.7773 80.2561 47.9855 78.3944 51.114 79.2312L51.1169 79.232C52.8061 79.6802 54.2308 80.0083 55.4781 80.2574ZM59.333 79.1837V80.5725L60.7177 80.6793C63.1765 80.8688 64.9076 80.815 66.0865 80.6772L68.1833 80.4322L67.262 78.5328C66.2813 76.5107 64.3091 73.9192 61.9509 71.2834L59.333 68.3574V72.2836V79.1837Z" stroke="white" stroke-width="3"/>
<path d="M51.1895 11.2711L50.8953 12.221L51.6557 12.8618C55.1351 15.7941 57.3463 20.1746 57.3463 25.074C57.3463 33.8925 50.1972 41.043 41.3791 41.043C32.5589 41.043 25.4083 33.8939 25.4083 25.074C25.4083 20.1763 27.6178 15.796 31.1005 12.862L31.8612 12.2212L31.567 11.2711L29.3015 3.95586C29.5614 3.83838 29.8667 3.70688 30.2148 3.56742C31.5324 3.03951 33.4557 2.40035 35.8442 1.97378C40.3538 1.16844 46.521 1.11938 53.4367 4.01483L51.1895 11.2711Z"  stroke-width="3" stroke="white"/>
</svg>
