<svg id="icon" viewBox="0 0 243 187" fill="none" xmlns="http://www.w3.org/2000/svg">
<path d="M242.434 140.869L144.413 1.26368C143.669 0.203267 142.322 -0.252084 141.087 0.138217C139.852 0.528518 139.012 1.67447 139.012 2.97043V142.576C139.012 144.216 140.342 145.546 141.982 145.546H240.003C241.111 145.546 242.127 144.929 242.639 143.946C243.15 142.962 243.071 141.776 242.434 140.869ZM144.952 139.606V130.695H153.863V124.754H144.952V109.902H153.863V103.962H144.952V89.11H153.863V83.1693H144.952V68.3177H153.863V62.377H144.952V47.5254H153.863V41.5847H144.952V12.37L234.288 139.606H144.952Z" fill="white"/>
<path d="M164.259 118.813H195.448C196.573 118.813 197.601 118.177 198.105 117.171C198.608 116.164 198.499 114.96 197.824 114.06L166.636 72.4756C165.868 71.4526 164.533 71.0353 163.32 71.4399C162.107 71.8441 161.289 72.9794 161.289 74.2578V115.842C161.289 117.483 162.619 118.813 164.259 118.813ZM167.23 83.1688L189.507 112.872H167.23V83.1688Z" fill="white"/>
<path d="M127.387 32.2618L83.2413 27.7777C82.6947 27.7255 81.8739 27.5338 81.4414 27.8717L26.9298 70.4617C26.4975 70.7994 26.4849 71.6422 26.4032 72.1854L19.9379 115.929C19.7722 117.022 20.5331 118.151 21.6053 118.421C22.3186 118.601 126.348 144.898 127.072 145.03C127.397 145.089 127.772 145.087 128.004 145.027C128.632 144.865 129.035 144.575 129.35 143.992C129.465 143.781 129.579 143.446 129.6 143.116C129.604 143.067 129.634 143.028 129.634 142.979L129.332 34.3933C129.329 33.2875 128.488 32.3655 127.387 32.2618ZM29.9506 75.2927L53.4379 87.9223L24.6251 110.434L29.9506 75.2927ZM59.2928 83.3478L57.8078 53.8027L86.1163 62.3906L59.2928 83.3478ZM90.1143 64.72L121.484 135.304L60.5859 87.7906L90.1143 64.72ZM60.0921 50.005L81.3301 33.4117L87.6785 58.3743L60.0921 50.005ZM55.0179 83.8921L32.3324 71.6937L53.5704 55.1004L55.0179 83.8921ZM57.0948 90.5182L117.577 137.706L26.2027 114.654L57.0948 90.5182ZM93.6054 61.9924L124.498 37.8564L124.761 132.093L93.6054 61.9924ZM91.9712 57.8161L85.3984 31.9713L120.784 35.3047L91.9712 57.8161Z" fill="white"/>
</svg>
